M48
; DRILL file {KiCad 8.0.1} date 2025-01-29T15:22:16+0100
; FORMAT={-:-/ absolute / inch / decimal}
; #@! TF.CreationDate,2025-01-29T15:22:16+01:00
; #@! TF.GenerationSoftware,Kicad,Pcbnew,8.0.1
; #@! TF.FileFunction,Plated,1,2,PTH
FMAT,2
INCH
; #@! TA.AperFunction,Plated,PTH,ViaDrill
T1C0.0157
; #@! TA.AperFunction,Plated,PTH,ComponentDrill
T2C0.0315
; #@! TA.AperFunction,Plated,PTH,ComponentDrill
T3C0.0394
; #@! TA.AperFunction,Plated,PTH,ComponentDrill
T4C0.1181
; #@! TA.AperFunction,Plated,PTH,ComponentDrill
T5C0.1378
%
G90
G05
T1
X8.35Y-6.5
X8.4Y-7.57
X8.45Y-4.1
X8.45Y-4.8
X8.45Y-5.65
X8.45Y-6.7
X8.535Y-6.76
X8.6Y-5.4
X8.6Y-7.34
X8.6Y-7.6
X8.61Y-6.8
X8.64Y-7.49
X8.65Y-6.05
X8.65Y-6.31
X8.7Y-4.225
X8.7Y-7.36
X8.74Y-6.43
X8.75Y-4.28
X8.75Y-6.08
X8.75Y-6.65
X8.8Y-6.43
X8.8202Y-5.7898
X8.85Y-4.29
X8.85Y-6.11
X8.85Y-7.53
X8.9Y-5.72
X8.9Y-6.4
X8.9Y-7.4
X8.9Y-7.53
X8.9015Y-5.7785
X8.95Y-4.29
X8.95Y-5.69
X8.975Y-6.755
X8.975Y-7.09
X9.0Y-6.28
X9.0Y-7.6562
X9.0443Y-5.75
X9.0498Y-6.7502
X9.05Y-4.32
X9.1Y-5.66
X9.1Y-7.56
X9.1Y-7.62
X9.15Y-4.35
X9.1504Y-5.72
X9.2Y-5.81
X9.2Y-6.55
X9.2Y-7.5
X9.2Y-7.63
X9.25Y-4.38
X9.25Y-7.1
X9.26Y-5.75
X9.3Y-6.05
X9.3Y-7.55
X9.31Y-5.7181
X9.32Y-6.49
X9.35Y-5.37
X9.35Y-5.53
X9.39Y-5.7785
X9.4Y-7.3
X9.43Y-6.12
X9.45Y-5.34
X9.45Y-7.51
X9.45Y-7.61
X9.5Y-7.51
X9.55Y-5.53
X9.59Y-7.4
X9.6Y-4.41
X9.6Y-7.51
X9.61Y-5.72
X9.64Y-5.75
X9.64Y-7.36
X9.65Y-5.16
X9.675Y-5.925
X9.675Y-6.125
X9.7Y-6.49
X9.7Y-7.56
X9.74Y-5.8385
X9.75Y-5.19
X9.775Y-7.325
X9.8Y-7.6
X9.85Y-5.07
X9.85Y-5.25
X9.85Y-6.7
X9.9Y-6.49
X9.9Y-7.025
X9.95Y-5.07
X9.95Y-5.28
X10.0Y-5.13
X10.0Y-7.025
X10.0Y-7.45
X10.0Y-7.6
X10.05Y-7.325
X10.1Y-5.31
X10.1Y-6.68
X10.1Y-7.42
X10.1Y-7.6
X10.15Y-6.075
X10.17Y-6.28
X10.2Y-7.03
X10.2Y-7.54
X10.21Y-4.41
X10.21Y-5.82
X10.25Y-5.7
X10.25Y-7.6085
X10.275Y-5.55
X10.3Y-6.4
X10.3Y-7.49
X10.3Y-7.62
X10.33Y-6.43
X10.35Y-7.55
X10.4Y-5.55
X10.4Y-7.02
X10.4Y-7.325
X10.4Y-7.3915
X10.4Y-7.59
X10.475Y-6.075
X10.5Y-5.47
X10.5Y-6.65
X10.5Y-7.42
X10.5Y-7.6
X10.6Y-5.7
X10.65Y-4.25
X10.6998Y-7.4498
X10.7Y-5.7
X10.75Y-4.28
X10.8Y-4.44
X10.8Y-6.525
X10.8098Y-7.3798
X10.85Y-4.31
X10.85Y-5.95
X10.85Y-6.175
X10.9Y-4.47
X10.925Y-6.625
X10.95Y-4.34
X10.9557Y-5.37
X10.96Y-6.2
X10.975Y-7.275
X11.0Y-4.5
X11.0Y-6.25
X11.025Y-5.875
X11.05Y-4.37
X11.1Y-4.53
X11.15Y-4.4
X11.15Y-5.53
X11.2Y-4.56
X11.2Y-6.01
X11.25Y-5.37
X11.25Y-5.5
X11.3Y-4.59
X11.35Y-5.34
X11.35Y-5.47
X11.35Y-6.33
X11.4Y-4.62
X11.4Y-7.63
X11.45Y-4.62
X11.45Y-5.37
X11.45Y-6.37
X11.5Y-7.0
X11.55Y-5.1915
X11.55Y-5.33
X11.55Y-6.43
X11.55Y-6.68
X11.65Y-5.23
X11.65Y-5.28
X11.65Y-5.7
X11.7Y-5.13
X11.7Y-5.53
X11.73Y-5.23
X11.7715Y-5.23
X11.8Y-5.5
X11.8014Y-5.1014
X11.84Y-5.13
X11.87Y-5.33
X11.8985Y-5.16
X11.9Y-5.47
X11.925Y-7.375
X11.925Y-7.575
X11.95Y-5.33
X11.975Y-7.05
X12.0Y-5.37
X12.07Y-4.62
X12.3Y-4.15
X12.325Y-5.0
X12.325Y-6.2
X12.325Y-6.875
T2
X8.4266Y-7.4
X8.45Y-4.3516
X8.45Y-4.5484
X8.45Y-5.2016
X8.45Y-5.3984
X8.45Y-5.9516
X8.45Y-6.1484
X8.45Y-6.95
X8.45Y-7.1469
X8.525Y-7.4
X8.6Y-4.15
X8.6Y-4.75
X8.6Y-5.0
X8.6Y-5.6
X8.6Y-5.9
X8.6Y-6.2
X8.6Y-6.9
X8.6Y-7.2
X8.7Y-4.15
X8.7Y-4.75
X8.7Y-5.0
X8.7Y-5.6
X8.7Y-5.9
X8.7Y-6.2
X8.7Y-6.9
X8.7Y-7.2
X8.8Y-4.15
X8.8Y-4.75
X8.8Y-5.0
X8.8Y-5.6
X8.8Y-5.9
X8.8Y-6.2
X8.8Y-6.9
X8.8Y-7.2
X8.9Y-4.15
X8.9Y-4.75
X8.9Y-5.0
X8.9Y-5.6
X8.9Y-5.9
X8.9Y-6.2
X8.9Y-6.9
X8.9Y-7.2
X9.0Y-4.15
X9.0Y-4.75
X9.0Y-5.0
X9.0Y-5.6
X9.0Y-5.9
X9.0Y-6.2
X9.0Y-6.9
X9.0Y-7.2
X9.1Y-4.15
X9.1Y-4.75
X9.1Y-5.0
X9.1Y-5.6
X9.1Y-5.9
X9.1Y-6.2
X9.1Y-6.9
X9.1Y-7.2
X9.2Y-4.15
X9.2Y-4.75
X9.2Y-5.0
X9.2Y-5.6
X9.2Y-5.9
X9.2Y-6.2
X9.2Y-6.9
X9.2Y-7.2
X9.3Y-4.15
X9.3Y-4.75
X9.3Y-5.0
X9.3Y-5.6
X9.3Y-5.9
X9.3Y-6.2
X9.3Y-6.9
X9.3Y-7.2
X9.4Y-4.15
X9.4Y-4.75
X9.4Y-5.0
X9.4Y-5.6
X9.4Y-6.9
X9.4Y-7.2
X9.5Y-4.15
X9.5Y-4.75
X9.5Y-5.0
X9.5Y-5.6
X9.5Y-6.9
X9.5Y-7.2
X9.6Y-4.15
X9.6Y-4.75
X9.6Y-5.0
X9.6Y-5.6
X9.7Y-4.15
X9.7Y-4.75
X9.7Y-5.0
X9.7Y-5.6
X9.72Y-6.9516
X9.72Y-7.1484
X9.8Y-4.15
X9.8Y-4.75
X9.8Y-5.0
X9.8Y-5.6
X9.8Y-5.9516
X9.8Y-6.1484
X9.85Y-6.9
X9.85Y-7.2
X9.9Y-4.15
X9.9Y-4.75
X9.9Y-5.0
X9.9Y-5.6
X9.95Y-5.9
X9.95Y-6.2
X9.95Y-6.9
X9.95Y-7.2
X10.0Y-4.15
X10.0Y-4.75
X10.0Y-5.0
X10.0Y-5.6
X10.05Y-5.9
X10.05Y-6.2
X10.05Y-6.9
X10.05Y-7.2
X10.1Y-4.15
X10.1Y-4.75
X10.1Y-5.0
X10.1Y-5.6
X10.15Y-5.9
X10.15Y-6.2
X10.15Y-6.9
X10.15Y-7.2
X10.25Y-5.9
X10.25Y-6.2
X10.25Y-6.9
X10.25Y-7.2
X10.35Y-4.3516
X10.35Y-4.5484
X10.35Y-5.2016
X10.35Y-5.3984
X10.35Y-5.9
X10.35Y-6.2
X10.35Y-6.9
X10.35Y-7.2
X10.4Y-6.75
X10.45Y-5.9
X10.45Y-6.2
X10.45Y-6.9
X10.45Y-7.2
X10.5Y-4.15
X10.5Y-4.75
X10.5Y-5.0
X10.5Y-5.6
X10.5Y-6.75
X10.55Y-5.9
X10.55Y-6.2
X10.55Y-6.9
X10.55Y-7.2
X10.6Y-4.15
X10.6Y-4.75
X10.6Y-5.0
X10.6Y-5.6
X10.6Y-6.75
X10.65Y-5.9
X10.65Y-6.2
X10.65Y-6.9
X10.65Y-7.2
X10.7Y-4.15
X10.7Y-4.75
X10.7Y-5.0
X10.7Y-5.6
X10.7Y-6.75
X10.75Y-6.9
X10.75Y-7.2
X10.8Y-4.15
X10.8Y-4.75
X10.8Y-5.0
X10.8Y-5.6
X10.8Y-6.75
X10.9Y-4.15
X10.9Y-4.75
X10.9Y-5.0
X10.9Y-5.6
X10.95Y-6.9516
X10.95Y-7.1484
X11.0Y-4.15
X11.0Y-4.75
X11.0Y-5.0
X11.0Y-5.6
X11.1Y-4.15
X11.1Y-4.75
X11.1Y-5.0
X11.1Y-5.6
X11.1Y-5.9516
X11.1Y-6.1484
X11.1Y-6.9
X11.1Y-7.2
X11.2Y-4.15
X11.2Y-4.75
X11.2Y-5.0
X11.2Y-5.6
X11.2Y-6.75
X11.2Y-6.9
X11.2Y-7.2
X11.3Y-4.15
X11.3Y-4.75
X11.3Y-5.0
X11.3Y-5.6
X11.3Y-5.9
X11.3Y-6.2
X11.3Y-6.75
X11.3Y-6.9
X11.3Y-7.2
X11.4Y-4.15
X11.4Y-4.75
X11.4Y-5.0
X11.4Y-5.6
X11.4Y-5.9
X11.4Y-6.2
X11.4Y-6.75
X11.4Y-6.9
X11.4Y-7.2
X11.5Y-4.15
X11.5Y-4.75
X11.5Y-5.0
X11.5Y-5.6
X11.5Y-5.9
X11.5Y-6.2
X11.5Y-6.75
X11.5Y-6.9
X11.5Y-7.2
X11.6Y-4.15
X11.6Y-4.75
X11.6Y-5.0
X11.6Y-5.6
X11.6Y-5.9
X11.6Y-6.2
X11.6Y-6.75
X11.6Y-6.9
X11.6Y-7.2
X11.7Y-4.15
X11.7Y-4.75
X11.7Y-5.0
X11.7Y-5.6
X11.7Y-5.9
X11.7Y-6.2
X11.7Y-6.75
X11.7Y-6.9
X11.7Y-7.2
X11.8Y-4.15
X11.8Y-4.75
X11.8Y-5.0
X11.8Y-5.6
X11.8Y-5.9
X11.8Y-6.2
X11.8Y-6.75
X11.8Y-6.9
X11.8Y-7.2
X11.9Y-4.15
X11.9Y-4.75
X11.9Y-5.0
X11.9Y-5.6
X11.9Y-5.9
X11.9Y-6.2
X11.9Y-6.75
X11.9Y-6.9
X11.9Y-7.2
X12.0Y-4.15
X12.0Y-4.75
X12.0Y-5.0
X12.0Y-5.6
X12.0Y-5.9
X12.0Y-6.2
X12.0Y-6.75
X12.0Y-6.9
X12.0Y-7.2
X12.2026Y-7.06
X12.301Y-7.06
T3
X10.4Y-6.4498
X10.4Y-6.5498
X10.5Y-6.4498
X10.5Y-6.5498
X10.6Y-6.4498
X10.6Y-6.5498
X10.7Y-6.4498
X10.7Y-6.5498
T4
X12.25Y-7.525
T5
X12.25Y-5.3
M30
