%TF.GenerationSoftware,KiCad,Pcbnew,8.0.1*%
%TF.CreationDate,2025-01-29T15:22:11+01:00*%
%TF.ProjectId,ISA_EMS,4953415f-454d-4532-9e6b-696361645f70,rev?*%
%TF.SameCoordinates,Original*%
%TF.FileFunction,Soldermask,Top*%
%TF.FilePolarity,Negative*%
%FSLAX46Y46*%
G04 Gerber Fmt 4.6, Leading zero omitted, Abs format (unit mm)*
G04 Created by KiCad (PCBNEW 8.0.1) date 2025-01-29 15:22:11*
%MOMM*%
%LPD*%
G01*
G04 APERTURE LIST*
%ADD10R,1.600000X1.600000*%
%ADD11C,1.600000*%
%ADD12R,1.780000X7.620000*%
%ADD13R,1.700000X1.700000*%
%ADD14O,1.700000X1.700000*%
%ADD15O,1.600000X1.600000*%
%ADD16C,6.000000*%
%ADD17C,3.900000*%
%ADD18C,7.000000*%
G04 APERTURE END LIST*
D10*
%TO.C,C2*%
X216535000Y-187960000D03*
D11*
X214035000Y-187960000D03*
%TD*%
D10*
%TO.C,C3*%
X309944888Y-179324000D03*
D11*
X312444888Y-179324000D03*
%TD*%
%TO.C,C4*%
X214630000Y-110530000D03*
X214630000Y-115530000D03*
%TD*%
%TO.C,C5*%
X248920000Y-151170000D03*
X248920000Y-156170000D03*
%TD*%
%TO.C,C6*%
X214630000Y-176530000D03*
X214630000Y-181530000D03*
%TD*%
D12*
%TO.C,J1*%
X289560000Y-199390000D03*
X287020000Y-199390000D03*
X284480000Y-199390000D03*
X281940000Y-199390000D03*
X279400000Y-199390000D03*
X276860000Y-199390000D03*
X274320000Y-199390000D03*
X271780000Y-199390000D03*
X269240000Y-199390000D03*
X266700000Y-199390000D03*
X264160000Y-199390000D03*
X261620000Y-199390000D03*
X259080000Y-199390000D03*
X256540000Y-199390000D03*
X254000000Y-199390000D03*
X251460000Y-199390000D03*
X248920000Y-199390000D03*
X246380000Y-199390000D03*
X243840000Y-199390000D03*
X241300000Y-199390000D03*
X238760000Y-199390000D03*
X236220000Y-199390000D03*
X233680000Y-199390000D03*
X231140000Y-199390000D03*
X228600000Y-199390000D03*
X226060000Y-199390000D03*
X223520000Y-199390000D03*
X220980000Y-199390000D03*
X218440000Y-199390000D03*
X215900000Y-199390000D03*
X213360000Y-199390000D03*
%TD*%
D11*
%TO.C,C7*%
X262890000Y-115530000D03*
X262890000Y-110530000D03*
%TD*%
%TO.C,C8*%
X214630000Y-151170000D03*
X214630000Y-156170000D03*
%TD*%
%TO.C,C10*%
X214630000Y-132120000D03*
X214630000Y-137120000D03*
%TD*%
%TO.C,C11*%
X246888000Y-176570000D03*
X246888000Y-181570000D03*
%TD*%
%TO.C,C12*%
X262890000Y-132120000D03*
X262890000Y-137120000D03*
%TD*%
%TO.C,C9*%
X278130000Y-176570000D03*
X278130000Y-181570000D03*
%TD*%
%TO.C,C1*%
X281940000Y-151170000D03*
X281940000Y-156170000D03*
%TD*%
D13*
%TO.C,J2*%
X271780000Y-163825000D03*
D14*
X271780000Y-166365000D03*
X269240000Y-163825000D03*
X269240000Y-166365000D03*
X266700000Y-163825000D03*
X266700000Y-166365000D03*
X264160000Y-163825000D03*
X264160000Y-166365000D03*
%TD*%
D10*
%TO.C,RN2*%
X274320000Y-171450000D03*
D15*
X271780000Y-171450000D03*
X269240000Y-171450000D03*
X266700000Y-171450000D03*
X264160000Y-171450000D03*
%TD*%
D10*
%TO.C,RN1*%
X284480000Y-171450000D03*
D15*
X287020000Y-171450000D03*
X289560000Y-171450000D03*
X292100000Y-171450000D03*
X294640000Y-171450000D03*
X297180000Y-171450000D03*
X299720000Y-171450000D03*
X302260000Y-171450000D03*
X304800000Y-171450000D03*
%TD*%
D10*
%TO.C,U1*%
X218440000Y-120650000D03*
D15*
X220980000Y-120650000D03*
X223520000Y-120650000D03*
X226060000Y-120650000D03*
X228600000Y-120650000D03*
X231140000Y-120650000D03*
X233680000Y-120650000D03*
X236220000Y-120650000D03*
X238760000Y-120650000D03*
X241300000Y-120650000D03*
X243840000Y-120650000D03*
X246380000Y-120650000D03*
X248920000Y-120650000D03*
X251460000Y-120650000D03*
X254000000Y-120650000D03*
X256540000Y-120650000D03*
X256540000Y-105410000D03*
X254000000Y-105410000D03*
X251460000Y-105410000D03*
X248920000Y-105410000D03*
X246380000Y-105410000D03*
X243840000Y-105410000D03*
X241300000Y-105410000D03*
X238760000Y-105410000D03*
X236220000Y-105410000D03*
X233680000Y-105410000D03*
X231140000Y-105410000D03*
X228600000Y-105410000D03*
X226060000Y-105410000D03*
X223520000Y-105410000D03*
X220980000Y-105410000D03*
X218440000Y-105410000D03*
%TD*%
D10*
%TO.C,U2*%
X218440000Y-142240000D03*
D15*
X220980000Y-142240000D03*
X223520000Y-142240000D03*
X226060000Y-142240000D03*
X228600000Y-142240000D03*
X231140000Y-142240000D03*
X233680000Y-142240000D03*
X236220000Y-142240000D03*
X238760000Y-142240000D03*
X241300000Y-142240000D03*
X243840000Y-142240000D03*
X246380000Y-142240000D03*
X248920000Y-142240000D03*
X251460000Y-142240000D03*
X254000000Y-142240000D03*
X256540000Y-142240000D03*
X256540000Y-127000000D03*
X254000000Y-127000000D03*
X251460000Y-127000000D03*
X248920000Y-127000000D03*
X246380000Y-127000000D03*
X243840000Y-127000000D03*
X241300000Y-127000000D03*
X238760000Y-127000000D03*
X236220000Y-127000000D03*
X233680000Y-127000000D03*
X231140000Y-127000000D03*
X228600000Y-127000000D03*
X226060000Y-127000000D03*
X223520000Y-127000000D03*
X220980000Y-127000000D03*
X218440000Y-127000000D03*
%TD*%
D10*
%TO.C,U3*%
X266700000Y-142240000D03*
D15*
X269240000Y-142240000D03*
X271780000Y-142240000D03*
X274320000Y-142240000D03*
X276860000Y-142240000D03*
X279400000Y-142240000D03*
X281940000Y-142240000D03*
X284480000Y-142240000D03*
X287020000Y-142240000D03*
X289560000Y-142240000D03*
X292100000Y-142240000D03*
X294640000Y-142240000D03*
X297180000Y-142240000D03*
X299720000Y-142240000D03*
X302260000Y-142240000D03*
X304800000Y-142240000D03*
X304800000Y-127000000D03*
X302260000Y-127000000D03*
X299720000Y-127000000D03*
X297180000Y-127000000D03*
X294640000Y-127000000D03*
X292100000Y-127000000D03*
X289560000Y-127000000D03*
X287020000Y-127000000D03*
X284480000Y-127000000D03*
X281940000Y-127000000D03*
X279400000Y-127000000D03*
X276860000Y-127000000D03*
X274320000Y-127000000D03*
X271780000Y-127000000D03*
X269240000Y-127000000D03*
X266700000Y-127000000D03*
%TD*%
D10*
%TO.C,U4*%
X266700000Y-120650000D03*
D15*
X269240000Y-120650000D03*
X271780000Y-120650000D03*
X274320000Y-120650000D03*
X276860000Y-120650000D03*
X279400000Y-120650000D03*
X281940000Y-120650000D03*
X284480000Y-120650000D03*
X287020000Y-120650000D03*
X289560000Y-120650000D03*
X292100000Y-120650000D03*
X294640000Y-120650000D03*
X297180000Y-120650000D03*
X299720000Y-120650000D03*
X302260000Y-120650000D03*
X304800000Y-120650000D03*
X304800000Y-105410000D03*
X302260000Y-105410000D03*
X299720000Y-105410000D03*
X297180000Y-105410000D03*
X294640000Y-105410000D03*
X292100000Y-105410000D03*
X289560000Y-105410000D03*
X287020000Y-105410000D03*
X284480000Y-105410000D03*
X281940000Y-105410000D03*
X279400000Y-105410000D03*
X276860000Y-105410000D03*
X274320000Y-105410000D03*
X271780000Y-105410000D03*
X269240000Y-105410000D03*
X266700000Y-105410000D03*
%TD*%
D10*
%TO.C,U7*%
X250190000Y-182880000D03*
D15*
X252730000Y-182880000D03*
X255270000Y-182880000D03*
X257810000Y-182880000D03*
X260350000Y-182880000D03*
X262890000Y-182880000D03*
X265430000Y-182880000D03*
X267970000Y-182880000D03*
X270510000Y-182880000D03*
X273050000Y-182880000D03*
X273050000Y-175260000D03*
X270510000Y-175260000D03*
X267970000Y-175260000D03*
X265430000Y-175260000D03*
X262890000Y-175260000D03*
X260350000Y-175260000D03*
X257810000Y-175260000D03*
X255270000Y-175260000D03*
X252730000Y-175260000D03*
X250190000Y-175260000D03*
%TD*%
D10*
%TO.C,U10*%
X218440000Y-182880000D03*
D15*
X220980000Y-182880000D03*
X223520000Y-182880000D03*
X226060000Y-182880000D03*
X228600000Y-182880000D03*
X231140000Y-182880000D03*
X233680000Y-182880000D03*
X236220000Y-182880000D03*
X238760000Y-182880000D03*
X241300000Y-182880000D03*
X241300000Y-175260000D03*
X238760000Y-175260000D03*
X236220000Y-175260000D03*
X233680000Y-175260000D03*
X231140000Y-175260000D03*
X228600000Y-175260000D03*
X226060000Y-175260000D03*
X223520000Y-175260000D03*
X220980000Y-175260000D03*
X218440000Y-175260000D03*
%TD*%
D10*
%TO.C,U5*%
X287020000Y-157480000D03*
D15*
X289560000Y-157480000D03*
X292100000Y-157480000D03*
X294640000Y-157480000D03*
X297180000Y-157480000D03*
X299720000Y-157480000D03*
X302260000Y-157480000D03*
X304800000Y-157480000D03*
X304800000Y-149860000D03*
X302260000Y-149860000D03*
X299720000Y-149860000D03*
X297180000Y-149860000D03*
X294640000Y-149860000D03*
X292100000Y-149860000D03*
X289560000Y-149860000D03*
X287020000Y-149860000D03*
%TD*%
D10*
%TO.C,U6*%
X281940000Y-182880000D03*
D15*
X284480000Y-182880000D03*
X287020000Y-182880000D03*
X289560000Y-182880000D03*
X292100000Y-182880000D03*
X294640000Y-182880000D03*
X297180000Y-182880000D03*
X299720000Y-182880000D03*
X302260000Y-182880000D03*
X304800000Y-182880000D03*
X304800000Y-175260000D03*
X302260000Y-175260000D03*
X299720000Y-175260000D03*
X297180000Y-175260000D03*
X294640000Y-175260000D03*
X292100000Y-175260000D03*
X289560000Y-175260000D03*
X287020000Y-175260000D03*
X284480000Y-175260000D03*
X281940000Y-175260000D03*
%TD*%
D16*
%TO.C,H1*%
X311150000Y-191135000D03*
%TD*%
D17*
%TO.C,H2*%
X311150000Y-134620000D03*
D18*
X311150000Y-134620000D03*
%TD*%
D10*
%TO.C,U8*%
X218440000Y-157480000D03*
D15*
X220980000Y-157480000D03*
X223520000Y-157480000D03*
X226060000Y-157480000D03*
X228600000Y-157480000D03*
X231140000Y-157480000D03*
X233680000Y-157480000D03*
X236220000Y-157480000D03*
X236220000Y-149860000D03*
X233680000Y-149860000D03*
X231140000Y-149860000D03*
X228600000Y-149860000D03*
X226060000Y-149860000D03*
X223520000Y-149860000D03*
X220980000Y-149860000D03*
X218440000Y-149860000D03*
%TD*%
D10*
%TO.C,U9*%
X252730000Y-157480000D03*
D15*
X255270000Y-157480000D03*
X257810000Y-157480000D03*
X260350000Y-157480000D03*
X262890000Y-157480000D03*
X265430000Y-157480000D03*
X267970000Y-157480000D03*
X270510000Y-157480000D03*
X270510000Y-149860000D03*
X267970000Y-149860000D03*
X265430000Y-149860000D03*
X262890000Y-149860000D03*
X260350000Y-149860000D03*
X257810000Y-149860000D03*
X255270000Y-149860000D03*
X252730000Y-149860000D03*
%TD*%
G36*
X292042121Y-195600002D02*
G01*
X292088614Y-195653658D01*
X292100000Y-195706000D01*
X292100000Y-201928633D01*
X292099970Y-201931377D01*
X292097794Y-202031256D01*
X292095910Y-202050392D01*
X292060982Y-202248474D01*
X292055297Y-202269688D01*
X291986979Y-202457391D01*
X291977697Y-202477297D01*
X291877822Y-202650284D01*
X291865225Y-202668275D01*
X291736827Y-202821296D01*
X291721296Y-202836827D01*
X291568275Y-202965225D01*
X291550284Y-202977822D01*
X291377297Y-203077697D01*
X291357391Y-203086979D01*
X291169688Y-203155297D01*
X291148474Y-203160982D01*
X290950392Y-203195910D01*
X290931256Y-203197794D01*
X290831377Y-203199970D01*
X290828633Y-203200000D01*
X212091367Y-203200000D01*
X212088623Y-203199970D01*
X211988743Y-203197794D01*
X211969607Y-203195910D01*
X211771525Y-203160982D01*
X211750311Y-203155297D01*
X211562608Y-203086979D01*
X211542702Y-203077697D01*
X211369715Y-202977822D01*
X211351724Y-202965225D01*
X211198703Y-202836827D01*
X211183172Y-202821296D01*
X211054774Y-202668275D01*
X211042177Y-202650284D01*
X210942302Y-202477297D01*
X210933020Y-202457391D01*
X210864702Y-202269688D01*
X210859017Y-202248474D01*
X210824089Y-202050392D01*
X210822205Y-202031255D01*
X210820030Y-201931376D01*
X210820000Y-201928633D01*
X210820000Y-195706000D01*
X210840002Y-195637879D01*
X210893658Y-195591386D01*
X210946000Y-195580000D01*
X291974000Y-195580000D01*
X292042121Y-195600002D01*
G37*
M02*
